<svg width="24" height="24" viewBox="0 0 24 24" xmlns="http://www.w3.org/2000/svg">
    <g fill="none" fill-rule="evenodd">
        <path d="M0 0h24v24H0z"/>
        <path d="M2.75 2a.75.75 0 0 1 .75.75v16c0 .69.56 1.25 1.25 1.25h16a.75.75 0 0 1 0 1.5h-16A2.75 2.75 0 0 1 2 18.75v-16A.75.75 0 0 1 2.75 2zm18.53 6.22a.75.75 0 0 1 0 1.06l-4.585 4.586a2.75 2.75 0 0 1-3.89 0l-2.171-2.171a1.25 1.25 0 0 0-1.768 0L6.78 13.78a.75.75 0 0 1-1.06-1.06l2.085-2.086a2.75 2.75 0 0 1 3.89 0l2.171 2.171a1.25 1.25 0 0 0 1.768 0L20.22 8.22a.75.75 0 0 1 1.06 0z" fill="#E00004"/>
    </g>
</svg>
