<svg width="17" height="16" viewBox="0 0 17 16" xmlns="http://www.w3.org/2000/svg">
    <g fill="none" fill-rule="evenodd">
        <path d="M.62 0h16v16h-16z"/>
        <path d="M2.454 1.333a.5.5 0 0 1 .5.5V12.5c0 .46.373.833.833.833h10.667a.5.5 0 0 1 0 1H3.787A1.833 1.833 0 0 1 1.954 12.5V1.833a.5.5 0 0 1 .5-.5zM14.808 5.48a.5.5 0 0 1 0 .707L11.75 9.244a1.833 1.833 0 0 1-2.592 0L7.71 7.796a.833.833 0 0 0-1.179 0l-1.39 1.39a.5.5 0 0 1-.707-.706l1.39-1.39a1.833 1.833 0 0 1 2.593 0l1.448 1.447a.833.833 0 0 0 1.178 0L14.1 5.48a.5.5 0 0 1 .708 0z" fill="#FFF"/>
    </g>
</svg>
