<svg width="24" height="24" viewBox="0 0 24 24" xmlns="http://www.w3.org/2000/svg">
    <g fill="none" fill-rule="evenodd">
        <path d="M0 0h24v24H0z"/>
        <path d="m10.577.43-6 2-.215.08C2.618 3.21 1.5 4.86 1.5 6.7v5.338l.007.357c.156 3.858 2.474 6.958 6.028 9.4l.429.287.433.275.417.253.399.23.376.207.352.185.323.164a3.883 3.883 0 0 0 3.461.005l.312-.157.35-.184.375-.206.397-.228.416-.25.43-.274.444-.296c3.7-2.542 6.051-5.774 6.051-9.768V6.7l-.006-.229c-.114-1.875-1.327-3.459-3.071-4.04l-6-2-.31-.091a4.5 4.5 0 0 0-2.536.09zm2.165 1.363.207.061 6 2a3 3 0 0 1 2.045 2.663L21 6.7v5.338c0 3.961-2.882 6.802-5.385 8.521l-.413.276-.402.256-.39.235-.37.214-.352.193-.328.172-.3.152a2.377 2.377 0 0 1-2.12 0l-.3-.152-.328-.172-.351-.193-.372-.214-.389-.235-.402-.256-.413-.276c-2.433-1.672-5.225-4.403-5.378-8.194L3 12.038V6.7a3 3 0 0 1 1.88-2.783l.171-.063 6-2a3 3 0 0 1 1.69-.06z" fill="#050506"/>
        <path d="M11.051 1.854a3 3 0 0 1 1.69-.06l.208.06 6 2a3 3 0 0 1 2.045 2.663L21 6.7v5.338c0 3.961-2.882 6.802-5.385 8.521l-.413.276-.402.256-.39.235-.37.214-.352.193-.328.172-.3.152a2.377 2.377 0 0 1-2.12 0l-.3-.152-.328-.172-.351-.193-.372-.214-.389-.235-.402-.256-.413-.276c-2.433-1.672-5.225-4.403-5.378-8.194L3 12.038V6.7a3 3 0 0 1 1.88-2.783l.171-.063 6-2z" fill="#FF999B"/>
        <path d="M5 4.7h14v14H5z"/>
        <path d="M14.943 7.643a.786.786 0 0 1 1.255.912l-.058.103-.086.101-2.975 2.908 2.978 2.976a.788.788 0 0 1 .137.93l-.06.095-.077.089a.786.786 0 0 1-.912.142l-.103-.06-.101-.085-2.909-2.974-2.975 2.977a.788.788 0 0 1-.93.137l-.096-.06-.088-.077a.786.786 0 0 1-.142-.912l.06-.103.085-.101 2.973-2.908-2.976-2.976a.788.788 0 0 1-.137-.93l.06-.096.077-.088a.786.786 0 0 1 .912-.142l.103.06.101.085 2.907 2.974 2.977-2.977z" fill="#050506" fill-rule="nonzero"/>
    </g>
</svg>
