<svg width="96" height="96" viewBox="0 0 96 96" xmlns="http://www.w3.org/2000/svg">
    <path d="M50.35 80.763c17.352-1.525 31.008-16.134 31.008-33.874h-12.72c0 11.738-9.55 21.288-21.288 21.288s-21.288-9.55-21.288-21.288h-12.72c0 18.751 15.256 34.008 34.008 34.008h.04L52.127 96h36.727l-4.78-15.237H50.352zM15.72 16.7a3.986 3.986 0 0 1 3.982-3.981 3.986 3.986 0 0 1 3.982 3.981 3.986 3.986 0 0 1-3.982 3.982 3.986 3.986 0 0 1-3.982-3.982m20.683 0C36.403 7.493 28.911 0 19.702 0 10.492 0 3 7.493 3 16.701c0 9.21 7.493 16.702 16.702 16.702 9.209 0 16.701-7.493 16.701-16.702m38.595-3.981A3.986 3.986 0 0 1 78.98 16.7a3.986 3.986 0 0 1-3.982 3.982 3.986 3.986 0 0 1-3.982-3.982 3.986 3.986 0 0 1 3.982-3.981m0 20.683c9.21 0 16.702-7.492 16.702-16.702C91.7 7.493 84.207 0 74.998 0c-9.209 0-16.702 7.493-16.702 16.701 0 9.21 7.493 16.702 16.702 16.702" fill="#050506" fill-rule="evenodd"/>
</svg>
