<svg width="377" height="51" viewBox="0 0 377 51" xmlns="http://www.w3.org/2000/svg">
    <g fill="#050506" fill-rule="evenodd">
        <path d="M175.177 0h-7.854l13.913 39.52h8.838L204.007 0h-7.873l-10.266 31.107h-.406L175.177 0zm39.482 0H207.5v39.52h7.16V0zm5.507 39.52h7.16V26.167h7.564c9.127 0 14.029-5.48 14.029-13.084C248.919 5.538 244.075 0 234.986 0h-14.82v39.52zm7.16-19.239V5.982h6.56c5.365 0 7.739 2.895 7.739 7.101 0 4.207-2.374 7.198-7.7 7.198h-6.6zM251.7 39.558h3.381V20.713c0-4.332 3.325-7.466 7.884-7.466.893 0 1.729.152 2.033.19V9.998c-.456-.019-1.235-.057-1.786-.057-3.666 0-6.8 1.976-7.979 4.92h-.247v-4.483H251.7v29.18zm17.05 0h3.4v-29.18h-3.4v29.18zm1.728-34.195c1.387 0 2.545-1.102 2.545-2.431 0-1.33-1.158-2.432-2.545-2.432s-2.527 1.102-2.527 2.432c0 1.33 1.14 2.431 2.527 2.431zm30.423 5.015h-3.667l-8.662 24.715h-.266l-8.663-24.715h-3.666l10.657 29.18h3.61l10.657-29.18zm10.578 29.845c4.863 0 7.826-2.698 9.042-5.282h.21v4.617h3.38V19.744c0-7.827-5.888-9.765-10.353-9.765-4.464 0-9.061 1.767-11.037 6.535l3.21 1.16c1.064-2.508 3.705-4.655 7.922-4.655 4.427 0 6.877 2.432 6.877 6.421v.684c0 2.204-2.735 2.242-7.637 2.85-6.592.816-11.208 2.659-11.208 8.434 0 5.623 4.294 8.815 9.594 8.815zm.456-3.097c-3.819 0-6.668-2.033-6.668-5.566s2.887-5.015 7.826-5.623c2.394-.285 6.65-.817 7.637-1.786v4.218c0 4.787-3.4 8.757-8.795 8.757zm28.029 3.04c6.079 0 10.353-3.838 11.132-9.119h-3.42c-.778 3.724-3.837 6.022-7.712 6.022-5.718 0-9.499-4.977-9.499-12.082 0-7.067 3.895-11.93 9.499-11.93 4.16 0 6.972 2.679 7.694 5.984h3.42c-.799-5.414-5.32-9.062-11.171-9.062-7.637 0-12.842 6.345-12.842 15.122 0 8.7 5.053 15.065 12.899 15.065zM356.773 50.5c3.647 0 6.326-2.09 7.884-6.326l12.348-33.796h-3.667l-8.662 24.715h-.266l-8.663-24.715h-3.666l10.733 29.465-1.064 2.963c-1.615 4.408-3.894 5.186-7.333 4.104l-.912 2.982c.684.323 1.938.608 3.268.608zM19.89 0c10.966 0 19.888 8.922 19.888 19.889 0 10.76-8.59 19.55-19.272 19.878l-.345.008h19.55L42.29 48H22.466l-2.58-8.222C8.922 39.777 0 30.855 0 19.89 0 8.922 8.922 0 19.89 0zm91.317 9.78v29.751h-6.729V35.65a14.806 14.806 0 0 1-9.782 3.674c-8.165 0-14.807-6.596-14.807-14.703S86.531 9.918 94.696 9.918c3.746 0 7.172 1.388 9.782 3.674V9.781h6.729zm-62.94 0 2.941 10.932L53.1 28.11l.05.191.021.086h.08l4.41-18.606h6.675l4.343 18.19.083.358.013.058h.201l5.113-18.606h7.398l-9.808 29.732h-6.341L62.61 28.555c-.416-1.665-1.113-5.499-1.43-7.444l-.046-.291h-.065a6.127 6.127 0 0 1-.108.607c-.169.79-.899 3.744-1.404 5.719l-.062.241-3.226 12.126h-6.174L40.924 9.781h7.342zM19.888 6.729c-7.257 0-13.16 5.904-13.16 13.161s5.903 13.16 13.16 13.16c7.257 0 13.161-5.903 13.161-13.16 0-7.257-5.904-13.16-13.16-13.16zm74.807 9.918a8.077 8.077 0 0 0-5.723 2.347 7.872 7.872 0 0 0-2.356 5.628c0 2.124.837 4.123 2.356 5.628a8.078 8.078 0 0 0 5.723 2.347 8.078 8.078 0 0 0 5.724-2.347 7.873 7.873 0 0 0 2.355-5.628 7.872 7.872 0 0 0-2.355-5.628 8.078 8.078 0 0 0-5.724-2.347zm33.38-6.562c-2.376 0-4.569.591-6.462 1.65V9.787h-6.85v13.47c-.017.303-.026.608-.026.917V39.53h6.876V23.443c.313-4.465 3.495-6.508 6.462-6.508 3.86 0 6.661 3.044 6.661 7.239V39.53h6.85V24.174c0-3.757-1.319-7.26-3.715-9.862-2.512-2.726-5.99-4.228-9.796-4.228M146.41 0v9.801h-3.448v6.007h3.448v23.723h6.898V15.808h6.646V9.801h-6.59V0h-6.954z"/>
    </g>
</svg>
