<svg width="28" height="28" viewBox="0 0 28 28" xmlns="http://www.w3.org/2000/svg">
    <g fill="none" fill-rule="evenodd">
        <path d="M14 2.625C7.718 2.625 2.625 7.718 2.625 14S7.718 25.375 14 25.375 25.375 20.282 25.375 14 20.282 2.625 14 2.625z" fill="#85D6AD" fill-rule="nonzero"/>
        <path d="M0 0h28v28H0z"/>
        <path d="M14 2.625c6.282 0 11.375 5.093 11.375 11.375S20.282 25.375 14 25.375 2.625 20.282 2.625 14 7.718 2.625 14 2.625zm3.35 15.75h-6.7c.218 1.014.508 1.924.85 2.694.392.883.837 1.544 1.287 1.972.445.424.853.584 1.213.584.36 0 .768-.16 1.213-.584.45-.428.895-1.089 1.287-1.972.375-.867.66-1.77.85-2.694zm-8.486 0h-3.44a9.66 9.66 0 0 0 5.103 4.604h-.001l-.166-.283c-.11-.193-.214-.393-.313-.6L9.9 21.78c-.438-.985-.79-2.138-1.037-3.405zm13.712 0h-3.44c-.246 1.267-.599 2.42-1.036 3.405-.19.427-.399.829-.627 1.199a9.66 9.66 0 0 0 5.103-4.604zm-4.937-7h-7.278A22.292 22.292 0 0 0 10.208 14c0 .912.054 1.792.153 2.625h7.278c.099-.833.153-1.713.153-2.625 0-.912-.054-1.792-.153-2.625zm5.624 0H19.4a24.289 24.289 0 0 1 0 5.25h3.863A9.636 9.636 0 0 0 23.625 14c0-.91-.126-1.79-.362-2.625zm-14.663 0H4.737A9.632 9.632 0 0 0 4.375 14c0 .91.126 1.79.362 2.625H8.6a24.289 24.289 0 0 1 0-5.25zm1.927-6.355a9.66 9.66 0 0 0-5.103 4.605h3.44c.247-1.267.599-2.42 1.037-3.405.19-.427.398-.83.626-1.2zM14 4.375c-.36 0-.768.16-1.213.584-.45.428-.895 1.089-1.287 1.972-.342.77-.632 1.68-.85 2.694h6.7a13.877 13.877 0 0 0-.85-2.694c-.392-.883-.837-1.544-1.287-1.972-.445-.424-.853-.584-1.213-.584zm3.473.645c.228.37.436.773.626 1.2.438.985.79 2.138 1.036 3.405h3.44a9.66 9.66 0 0 0-5.102-4.605z" fill="#050506" fill-rule="nonzero"/>
    </g>
</svg>
