<svg width="24" height="24" viewBox="0 0 24 24" xmlns="http://www.w3.org/2000/svg">
    <g fill="none" fill-rule="evenodd">
        <path d="M0 0h24v24H0z"/>
        <path d="M10.75 3a.75.75 0 0 1 0 1.5h-5c-.69 0-1.25.56-1.25 1.25v12c0 .69.56 1.25 1.25 1.25h12c.69 0 1.25-.56 1.25-1.25v-5a.75.75 0 0 1 1.5 0v5a2.75 2.75 0 0 1-2.75 2.75h-12A2.75 2.75 0 0 1 3 17.75v-12A2.75 2.75 0 0 1 5.75 3h5zm8 0c.966 0 1.75.784 1.75 1.75v4a.75.75 0 0 1-1.5 0V5.56l-6.72 6.72a.75.75 0 1 1-1.06-1.06l6.72-6.72h-3.19a.75.75 0 0 1 0-1.5z" fill="#A7ACB4"/>
    </g>
</svg>
