<svg width="203" height="40" viewBox="0 0 203 40" xmlns="http://www.w3.org/2000/svg">
    <g fill="none" fill-rule="evenodd">
        <g fill="#050506">
            <g fill-rule="nonzero">
                <path d="M121.996 10.06h-3.059l5.419 15.514h3.441l5.426-15.513h-3.066l-3.998 12.21h-.158zM136.984 10.06h-2.788v15.514h2.788zM139.106 25.574h2.788v-5.242h2.946c3.554 0 5.463-2.15 5.463-5.135 0-2.962-1.886-5.136-5.426-5.136h-5.771v15.513zm2.788-7.552v-5.613h2.555c2.089 0 3.013 1.136 3.013 2.788 0 1.65-.924 2.825-2.998 2.825h-2.57zM152.012 25.574V13.94h1.302v1.788h.1c.231-.586.633-1.06 1.207-1.42.573-.36 1.223-.54 1.95-.54.107 0 .229.002.366.005.137.004.248.009.335.015v1.374l-.313-.048a3.363 3.363 0 0 0-.488-.033c-.602 0-1.136.128-1.605.384a2.872 2.872 0 0 0-1.107 1.058 2.93 2.93 0 0 0-.405 1.538v7.514h-1.342zM158.572 25.574V13.94h1.343v11.635h-1.343zm.682-13.635a.983.983 0 0 1-.707-.285.917.917 0 0 1-.295-.684c0-.267.098-.495.295-.685a.981.981 0 0 1 .706-.285c.274 0 .51.095.707.285.197.19.296.418.296.685a.918.918 0 0 1-.295.684.982.982 0 0 1-.707.285zM171.393 13.939l-4.218 11.635h-1.423l-4.218-11.635h1.453l3.426 9.858h.1l3.427-9.858zM175.807 25.837a4.38 4.38 0 0 1-1.91-.412 3.309 3.309 0 0 1-1.375-1.197c-.341-.523-.512-1.159-.512-1.906 0-.576.108-1.06.323-1.453.215-.393.521-.716.917-.968a5.05 5.05 0 0 1 1.406-.599 13.25 13.25 0 0 1 1.793-.343c.644-.081 1.191-.15 1.64-.21.45-.059.791-.154 1.025-.285.234-.132.35-.344.35-.637v-.272c0-.796-.233-1.423-.7-1.88-.468-.457-1.14-.686-2.015-.686-.835 0-1.514.185-2.036.555-.523.37-.89.804-1.1 1.304l-1.273-.465c.261-.633.622-1.14 1.083-1.522.46-.382.977-.659 1.548-.829a5.783 5.783 0 0 1 3.117-.08c.477.118.92.319 1.332.604.41.286.744.682 1.002 1.188.257.507.385 1.15.385 1.932v7.898h-1.342v-1.838h-.08c-.16.343-.398.676-.713.999-.315.322-.71.586-1.188.793-.476.206-1.035.309-1.677.309zm.18-1.232c.712 0 1.328-.16 1.85-.476a3.26 3.26 0 0 0 1.204-1.27c.283-.53.424-1.113.424-1.749v-1.677c-.097.096-.263.182-.498.258a6.562 6.562 0 0 1-.804.198c-.301.057-.603.105-.905.145-.303.04-.572.076-.81.106-.65.081-1.208.207-1.67.38-.463.17-.816.407-1.06.709-.244.301-.365.686-.365 1.154 0 .707.25 1.254.75 1.64.5.388 1.128.582 1.885.582zM187.807 25.817c-1.032 0-1.93-.26-2.694-.78-.764-.519-1.356-1.231-1.776-2.137-.42-.905-.63-1.936-.63-3.093 0-1.166.213-2.204.641-3.112.428-.908 1.022-1.621 1.785-2.14.762-.518 1.647-.778 2.654-.778.771 0 1.47.152 2.098.454a4.083 4.083 0 0 1 2.32 3.163h-1.352a3.05 3.05 0 0 0-1.01-1.686c-.533-.466-1.211-.698-2.036-.698-.737 0-1.387.2-1.953.602-.565.401-1.007.96-1.326 1.674-.32.714-.479 1.541-.479 2.48 0 .943.156 1.777.468 2.5.311.724.749 1.292 1.313 1.702.565.411 1.224.616 1.977.616.513 0 .98-.097 1.403-.291a2.896 2.896 0 0 0 1.066-.832c.288-.36.483-.787.587-1.28h1.353a4.219 4.219 0 0 1-.744 1.873 4.122 4.122 0 0 1-1.526 1.292c-.624.314-1.338.47-2.14.47zM194.999 29.937c-.265 0-.513-.024-.744-.074a2.722 2.722 0 0 1-.549-.168l.361-1.192c.453.145.857.198 1.214.158.356-.04.673-.202.95-.486.276-.285.52-.72.732-1.308l.426-1.182-4.249-11.746h1.453l3.427 9.858h.1l3.427-9.858H203l-4.885 13.473c-.203.563-.456 1.031-.759 1.407-.302.375-.65.656-1.043.84a3.047 3.047 0 0 1-1.314.278z"/>
            </g>
            <path d="M59.814 10c4.308 0 7.814 3.522 7.814 7.85 0 4.212-3.317 7.658-7.463 7.843l-.244.008h7.68l1.014 3.246h-7.789l-1.013-3.245C55.505 25.702 52 22.18 52 17.85 52 13.52 55.505 10 59.814 10zm35.876 3.86v11.744h-2.643v-1.532a5.801 5.801 0 0 1-3.844 1.45c-3.207 0-5.817-2.603-5.817-5.803 0-3.2 2.61-5.804 5.817-5.804 1.472 0 2.818.548 3.844 1.45v-1.504h2.643zm-24.728 0 1.156 4.316.743 2.92.015.058.013.052h.031l1.733-7.345h2.623l1.706 7.18.028.124.01.04h.078l2.009-7.344h2.906L80.16 25.597H77.67l-1.07-4.325c-.159-.634-.42-2.066-.549-2.855l-.032-.199h-.025a2.43 2.43 0 0 1-.043.24 98.677 98.677 0 0 1-.535 2.192l-.04.16-1.268 4.787H71.68l-3.603-11.736h2.884zm-11.148-1.204c-2.851 0-5.17 2.33-5.17 5.195s2.319 5.195 5.17 5.195c2.85 0 5.17-2.33 5.17-5.195s-2.32-5.195-5.17-5.195zm29.39 3.915c-.85 0-1.65.329-2.25.926a3.115 3.115 0 0 0-.925 2.222 3.166 3.166 0 0 0 3.174 3.148c.85 0 1.65-.33 2.25-.926a3.115 3.115 0 0 0 .924-2.222c0-.839-.328-1.628-.925-2.222a3.166 3.166 0 0 0-2.249-.926zm13.114-2.59a5.15 5.15 0 0 0-2.54.65v-.768h-2.69v5.318c-.007.119-.01.24-.01.361v6.062h2.7v-6.35c.124-1.763 1.374-2.57 2.54-2.57 1.516 0 2.616 1.203 2.616 2.858v6.062h2.692v-6.062c0-1.483-.519-2.865-1.46-3.892-.987-1.077-2.353-1.67-3.848-1.67M109.52 10v3.869h-1.355v2.371h1.355v9.364h2.71V16.24h2.61V13.87h-2.588V10h-2.732z"/>
        </g>
        <path d="M6.667 0h26.666A6.667 6.667 0 0 1 40 6.667v26.666A6.667 6.667 0 0 1 33.333 40H6.667A6.667 6.667 0 0 1 0 33.333V6.667A6.667 6.667 0 0 1 6.667 0z" fill="#5C97FF"/>
        <path d="M20.157 30.27c7.058-.095 12.772-5.866 12.772-12.946 0-7.14-5.81-12.949-12.95-12.949-7.139 0-12.948 5.809-12.948 12.949 0 7.139 5.808 12.947 12.947 12.948l1.68 5.353h12.906l-1.68-5.355H20.158zm-8.745-12.946c0-4.725 3.843-8.569 8.568-8.569s8.568 3.844 8.568 8.569c0 4.724-3.843 8.568-8.568 8.568s-8.568-3.844-8.568-8.568z" fill="#050506"/>
    </g>
</svg>
