<svg width="17" height="16" viewBox="0 0 17 16" xmlns="http://www.w3.org/2000/svg">
    <g fill="none" fill-rule="evenodd">
        <path d="M.191 0h16v16h-16z"/>
        <path d="M7.559 1.436a2 2 0 0 1 1.265 0l4 1.333a2 2 0 0 1 1.367 1.898v3.558c0 3.668-3.706 5.895-5.293 6.68a1.584 1.584 0 0 1-1.413 0c-1.587-.785-5.294-3.012-5.294-6.68V4.667A2 2 0 0 1 3.56 2.769zm.316.949-4 1.333a1 1 0 0 0-.684.949v3.558c0 1.472.74 2.705 1.756 3.71 1.017 1.007 2.235 1.704 2.981 2.073a.584.584 0 0 0 .527 0c.746-.37 1.964-1.066 2.981-2.073 1.016-1.005 1.755-2.238 1.755-3.71V4.667a1 1 0 0 0-.683-.949l-4-1.333a1 1 0 0 0-.633 0zm2.67 4.153a.5.5 0 0 1 0 .707l-2.29 2.29a1.033 1.033 0 0 1-1.46 0l-.957-.956a.5.5 0 1 1 .707-.707l.956.956a.033.033 0 0 0 .047 0l2.29-2.29a.5.5 0 0 1 .707 0z" fill="#050506"/>
    </g>
</svg>
