<svg width="24" height="24" viewBox="0 0 24 24" xmlns="http://www.w3.org/2000/svg">
    <g fill="none" fill-rule="evenodd">
        <path d="M0 0h24v24H0z"/>
        <path d="M13.75 2a2.75 2.75 0 0 1 2.745 2.582l.005.168V5h4.25a.75.75 0 0 1 .102 1.493l-.102.007H19.5v12.25a2.75 2.75 0 0 1-2.582 2.745l-.168.005h-10a2.75 2.75 0 0 1-2.745-2.582L4 18.75V6.5H2.75a.75.75 0 0 1-.102-1.493L2.75 5H7v-.25a2.75 2.75 0 0 1 2.582-2.745L9.75 2h4zM18 6.5H5.5v12.25c0 .69.56 1.25 1.25 1.25h10c.69 0 1.25-.56 1.25-1.25V6.5zM9.75 10a.75.75 0 0 1 .75.75v5a.75.75 0 0 1-1.5 0v-5a.75.75 0 0 1 .75-.75zm4 0a.75.75 0 0 1 .75.75v5a.75.75 0 0 1-1.5 0v-5a.75.75 0 0 1 .75-.75zm0-6.5h-4c-.69 0-1.25.56-1.25 1.25V5H15v-.25c0-.69-.56-1.25-1.25-1.25z" fill="#676E79"/>
    </g>
</svg>
