<svg width="24" height="24" viewBox="0 0 24 24" xmlns="http://www.w3.org/2000/svg">
    <g fill="none" fill-rule="evenodd">
        <path d="M12 0c6.627 0 12 5.373 12 12s-5.373 12-12 12S0 18.627 0 12 5.373 0 12 0zm0 8a4 4 0 1 0 0 8 4 4 0 0 0 0-8z" fill="#E9EAEC"/>
        <path d="M12 0c6.627 0 12 5.373 12 12s-5.373 12-12 12S0 18.627 0 12 5.373 0 12 0zm0 2C6.477 2 2 6.477 2 12s4.477 10 10 10 10-4.477 10-10S17.523 2 12 2z" fill="#050506"/>
        <path d="M12 7a5 5 0 1 0 0 10 5 5 0 0 0 0-10zm0 1a4 4 0 1 1 0 8 4 4 0 0 1 0-8z" fill="#050506"/>
    </g>
</svg>
