<svg width="58" height="66" viewBox="0 0 58 66" xmlns="http://www.w3.org/2000/svg">
    <g fill="none" fill-rule="evenodd">
        <path d="M25.846 1.513a9.951 9.951 0 0 1 6.308 0l18.024 6.022c4.072 1.358 6.82 5.183 6.822 9.492v16.076c0 6.731-2.647 12.431-6.33 17.09-5.612 7.1-13.63 11.757-18.058 13.955a8.08 8.08 0 0 1-7.224 0C20.96 61.95 12.942 57.294 7.33 50.194 3.647 45.534 1 39.834 1 33.103V17.028c.002-4.309 2.75-8.133 6.822-9.491l18.024-6.024z" stroke="#676E79" stroke-width="2" fill="#FFF" fill-rule="nonzero"/>
        <path d="M29 1.969c.963 0 1.925.155 2.85.463l18.023 6.024a9.033 9.033 0 0 1 6.161 8.572v16.075c0 16.57-16.701 26.628-23.85 30.175-.99.493-2.079.75-3.183.751L29 1.97z" fill="#C8CBD0" fill-rule="nonzero"/>
        <path d="M27.575 6.718 9.553 12.741a4.517 4.517 0 0 0-3.081 4.286v16.076c0 6.647 3.329 12.218 7.907 16.76 4.586 4.55 10.07 7.697 13.434 9.365a2.626 2.626 0 0 0 2.374 0c3.363-1.668 8.849-4.815 13.434-9.365 4.578-4.542 7.907-10.114 7.907-16.76V17.028a4.517 4.517 0 0 0-3.08-4.286L30.424 6.718a4.494 4.494 0 0 0-2.85 0z" fill="#E9EAEC" fill-rule="nonzero"/>
        <path d="M13.552 15.545h30.896v31.03H13.552z"/>
        <path d="M21.958 22.617a.963.963 0 0 0-1.353.011.973.973 0 0 0-.012 1.36l7.042 7.072-7.042 7.072a.972.972 0 0 0 .427 1.635.963.963 0 0 0 .938-.264L29 32.43l7.042 7.072a.963.963 0 0 0 1.628-.428.972.972 0 0 0-.263-.943l-7.042-7.072 7.042-7.072a.973.973 0 0 0-.012-1.36.963.963 0 0 0-1.353-.011L29 29.689l-7.042-7.072z" fill="#676E79" fill-rule="nonzero"/>
    </g>
</svg>
